<?xml version="1.0" encoding="utf-8"?>
<svg version="1.1" xmlns="http://www.w3.org/2000/svg" xmlns:xlink="http://www.w3.org/1999/xlink" x="0px" y="0px"
	 viewBox="0 0 420 420" style="enable-background:new 0 0 420 420;" xml:space="preserve">
<style type="text/css">
	.st0{fill:#42A5F5;}
	.st1{fill:#2196F3;}
	.st2{fill:none;stroke:#000000;stroke-width:16;stroke-linecap:round;stroke-miterlimit:10;}
	.st3{fill:#060708;}
</style>
	<g>
		<polygon class="st0" points="420,420 420,0 368,0 56.7,420"/>
		<polygon class="st1" points="0,0 0,420 57.7,420 369,0"/>
	</g>
	<g>
		<path class="st2" d="M38.3,53.6v194.1c0,14.1,8.9,31.4,20.3,39.3l124.2,85.8c6.1,4.2,14.1,6.5,22.6,6.5h13.6
			c8.5,0,16.5-2.3,22.6-6.5L365.9,287c11.4-7.9,20.3-25.1,20.3-39.3V53.6"/>
		<path class="st3" d="M277.6,304.5c-5.3,2.4-11.1,2.2-16.7,1.9c-2.5-0.1-5.1-0.3-7.6,0c-2.1,0.3-3.4,1.4-4.5,3.1
			c-5.6,9.7-14.4,14.5-25.6,15c-9.5,0.4-18.2-1.3-25.7-7.8c-11.2-9.6-11.6-26.3-0.2-35.8c14-11.8,35.3-11,47.6,1.8
			c1.3,1.3,2.7,2.8,3.3,4.5c1.5,3.6,4,4,7.7,4.5c15.9,2.2,25.4-7.3,34.2-17.9c9.6-11.5,15.4-24.8,18.6-39.4c0.5-2.3,0.2-2.8-2.1-2.6
			c-3.2,0.3-6.5,0.4-9.3-1.5c-3.2-2.1-5-5.1-5-9c0-23.9-0.1-47.8,0-71.8c0-2.8,0.7-5.8,2.7-7.8c0.5-0.5,1-0.9,1.6-1.3
			c0.7-0.4,1.5-0.6,2.1-1.2c0.9-0.9,0.4-2,0-3c-6.5-14.2-15.6-26.2-27.6-36.5c-11.5-9.8-24.2-16.9-38.8-20.3
			c-29.2-6.8-56-1.1-79.8,17.2c-13.7,10.5-24.1,23.6-31.1,39.5c-0.9,2-0.7,3,1.3,3.9c3.6,1.8,4.9,5.2,5,8.9c0,12.8,0,25.7,0,38.5
			c0,6.4,0,12.7,0,19.1c0,3.2,0,6.4,0,9.6c0,2.7,0.3,5.6-0.4,8.3c-1.2,4.6-5.5,7.3-10.1,7.4c-14,0.4-24.8-5.8-33.3-16.6
			c-5.1-7.9-7.2-16.8-8.3-26c0-1.4,0-2.8,0-4.2c0.1-6.7,1-13.4,3.3-19.7c1.2-3.1,2.7-6.2,4.5-9c2-3.1,4.5-5.7,6.8-8.5
			c0.9-0.8,1.9-1.5,2.8-2.3c2.2-0.7,3.5-2.1,4.2-4.4c5.8-18.6,15.5-35.1,28.9-49.1c5.5-5.7,11.5-11,18-15.5c3.2-2.3,6.6-4.3,10-6.2
			c3.5-1.9,7.2-3.5,10.7-5.4c3.4-1.2,6.8-2.5,10.2-3.7c0.8,0.1,1.4,0,1.9-0.7c17.4-4.8,34.9-6.3,52.7-3.2c2,1.2,4.3,1.1,6.5,1.5
			c12.1,2.9,23.4,7.6,34.1,13.9c1.3,1.6,3,2.7,5,3.3c4.6,3.6,9.3,7,13.6,11c7.5,7.1,13.7,15.4,20.1,23.5c1.9,3.2,3.7,6.4,5.6,9.6
			c0.9,2.5,1.5,5,3.2,7.1c0.3,1.1,0.8,2,1.7,2.8c2,6.3,2.8,12.7,9,17.4c10.6,8,14.8,19.8,15.8,32.8c0.8,10-0.9,19.6-4.6,28.9
			c-0.7,1.2-1.4,2.5-2,3.7c-2,2.8-4.1,5.4-6.5,7.8c-1.2,1.2-2.4,2.3-3.7,3.3c-1.2,0.9-2.2,1.7-2.4,3.3c-0.6,6.9-2.4,13.5-3.8,20.3
			c-0.4,1.3-0.9,2.6-1.3,3.9c-4.5,11.6-10.2,22.5-18.1,32.2c-0.8,0.2-0.7,1-1,1.6c-5.2,4.5-9.5,10-15.3,13.9
			C282.9,300.9,280.3,302.7,277.6,304.5z"/>
		<path class="st3" d="M208.8,157.8c-2.3,0-5-1-7.2,0.1c-2.1,1.1-0.7,3.4-0.2,5c0.7,2.3,0.2,5-0.3,7.3c-0.6,2.6-1.8,5-3.4,7
			c-11.7,14.7-26.8,22.6-45.8,20.1c-7.1-1-11.1-7.4-13.5-14.1c-1.5-4.5-2.3-9.2-2.5-13.9c-0.1-3.9,0-7.8,1.5-11.5
			c3.1-7.2,9.9-10.6,17.1-12.3c9.5-2.3,19.3-1.7,28.9-1.7c10,0,19.9,0,29.9,0c11.3,0,22.5,0,33.8,0c7.1,0,14.1,0.6,20.8,3.3
			c3.7,1.5,7.2,3.6,9.7,6.8c2.3,3,3.5,6.6,3.8,10.3c0.4,4.6-0.2,9.6-1.1,14.1c-1,4.8-2.9,9.3-6.2,13c-3.5,4-8.2,6.5-13.6,6.6
			c-9.9,0-19.6-2.6-27.8-8.2c-4-2.7-7.6-6.1-10.8-9.7c-3.6-4.1-6.5-8.6-6.4-14.3c0-1.7,0.4-3.2,0.8-4.8c0.2-0.8,0.5-1.8,0-2.6
			c-0.5-0.7-1.5-0.7-2.3-0.7c-1.8,0.1-3.6,0.1-5.4,0.1C208.8,157.7,208.8,157.8,208.8,157.8z M193.1,148.6c1.5,2.8,3.9,4.8,7,5.4
			c2.8,0.5,5.7,0.1,8.6,0.1c2.9,0,5.8,0.4,8.6-0.1c3.2-0.6,5.5-2.6,7-5.4C213.9,148.6,203.6,148.6,193.1,148.6z"/>
	</g>
</svg>
